<svg width="23" height="24" viewBox="0 0 23 24" fill="none" xmlns="http://www.w3.org/2000/svg">
<path d="M1 11.4966V11.9759C0.999915 13.9577 1.53407 15.9029 2.54624 17.6067C3.55842 19.3105 5.01118 20.71 6.75164 21.6578V22.9999H16.3377V21.6578C18.0782 20.71 19.5309 19.3105 20.5431 17.6067C21.5553 15.9029 22.0894 13.9577 22.0893 11.9759V11.4966H1Z" stroke="#5051F9" stroke-miterlimit="10"/>
<path d="M18.9319 7.12328L22.311 2.52197" stroke="#5051F9" stroke-miterlimit="10"/>
<path d="M17.7036 6.28432L18.836 1" stroke="#5051F9" stroke-miterlimit="10"/>
<path d="M2.55783 11.4967C2.29144 10.2012 2.46128 8.85383 3.04085 7.66488C3.62043 6.47592 4.57716 5.51218 5.76185 4.92394C6.94654 4.3357 8.29259 4.15602 9.59009 4.41294C10.8876 4.66986 12.0636 5.34893 12.9347 6.34424" stroke="#5051F9" stroke-miterlimit="10"/>
<path d="M4.53481 11.4967C4.26298 10.6143 4.29894 9.6657 4.63681 8.80641C4.97468 7.94712 5.59442 7.22809 6.39446 6.76715C7.19449 6.3062 8.12738 6.13069 9.04023 6.26937C9.95308 6.40804 10.7918 6.85269 11.4188 7.53044" stroke="#5051F9" stroke-miterlimit="10"/>
<path d="M6.63776 11.4967C6.47168 11.2509 6.3581 10.9735 6.3041 10.6818C6.2501 10.3901 6.25686 10.0904 6.32394 9.80142C6.39103 9.51246 6.517 9.24044 6.69399 9.00237C6.87098 8.76429 7.09517 8.56529 7.35256 8.4178C7.60995 8.27031 7.895 8.1775 8.18988 8.14517C8.48477 8.11284 8.78315 8.14169 9.06638 8.22992C9.34961 8.31814 9.61159 8.46384 9.83596 8.65791C10.0603 8.85198 10.2422 9.09025 10.3703 9.35782" stroke="#5051F9" stroke-miterlimit="10"/>
<path d="M16.7272 11.4965C16.8063 11.2793 16.8319 11.0462 16.8018 10.817C16.7717 10.5877 16.6867 10.3692 16.5541 10.1798C16.4216 9.99035 16.2453 9.8357 16.0402 9.72893C15.8351 9.62216 15.6073 9.56641 15.3761 9.56641C15.1449 9.56641 14.9172 9.62216 14.7121 9.72893C14.507 9.8357 14.3307 9.99035 14.1981 10.1798C14.0656 10.3692 13.9806 10.5877 13.9505 10.817C13.9204 11.0462 13.946 11.2793 14.0251 11.4965" stroke="#5051F9" stroke-miterlimit="10"/>
<path d="M18.6984 11.4967C18.7719 11.0186 18.7411 10.5303 18.6082 10.0652C18.4753 9.6001 18.2435 9.16925 17.9285 8.80216C17.6135 8.43507 17.2229 8.14043 16.7834 7.93842C16.3439 7.73642 15.8659 7.63184 15.3822 7.63184C14.8985 7.63184 14.4205 7.73642 13.981 7.93842C13.5416 8.14043 13.1509 8.43507 12.836 8.80216C12.521 9.16925 12.2891 9.6001 12.1562 10.0652C12.0233 10.5303 11.9926 11.0186 12.066 11.4967" stroke="#5051F9" stroke-miterlimit="10"/>
<path d="M20.6274 11.4968C20.6394 11.341 20.6514 11.1792 20.6514 11.0175C20.6514 9.61914 20.0959 8.2781 19.1071 7.28935C18.1184 6.30059 16.7773 5.74512 15.379 5.74512C13.9807 5.74512 12.6397 6.30059 11.6509 7.28935C10.6622 8.2781 10.1067 9.61914 10.1067 11.0175C10.1067 11.1792 10.1187 11.341 10.1307 11.4968" stroke="#5051F9" stroke-miterlimit="10"/>
</svg>
