<svg width="25" height="25" viewBox="0 0 25 25" fill="none" xmlns="http://www.w3.org/2000/svg">
<path d="M17.1875 10.417H7.8125" stroke="#5051F9" stroke-miterlimit="10"/>
<path d="M7.8125 18.2295H17.1875" stroke="#5051F9" stroke-miterlimit="10"/>
<path d="M17.1874 18.2295C17.4637 18.2295 17.7286 18.3392 17.924 18.5346C18.1193 18.7299 18.2291 18.9949 18.2291 19.2712V22.917C18.2291 23.3314 18.0645 23.7288 17.7714 24.0218C17.4784 24.3149 17.081 24.4795 16.6666 24.4795H8.33325C7.91885 24.4795 7.52142 24.3149 7.2284 24.0218C6.93537 23.7288 6.77075 23.3314 6.77075 22.917V19.2712C6.77075 18.9949 6.8805 18.7299 7.07585 18.5346C7.2712 18.3392 7.53615 18.2295 7.81242 18.2295V10.417C7.53615 10.417 7.2712 10.3072 7.07585 10.1119C6.8805 9.91654 6.77075 9.65159 6.77075 9.37533V7.29199C6.77075 6.46319 7.09999 5.66833 7.68604 5.08228C8.27209 4.49623 9.06695 4.16699 9.89575 4.16699H15.1041C15.9329 4.16699 16.7277 4.49623 17.3138 5.08228C17.8998 5.66833 18.2291 6.46319 18.2291 7.29199V9.37533C18.2291 9.65159 18.1193 9.91654 17.924 10.1119C17.7286 10.3072 17.4637 10.417 17.1874 10.417V18.2295Z" stroke="#5051F9" stroke-miterlimit="10"/>
<path d="M15.1041 4.16683V1.56266C15.1041 1.2864 14.9943 1.02144 14.799 0.826093C14.6036 0.630743 14.3387 0.520996 14.0624 0.520996H10.9374C10.6612 0.520996 10.3962 0.630743 10.2008 0.826093C10.0055 1.02144 9.89575 1.2864 9.89575 1.56266V4.16683" stroke="#5051F9" stroke-miterlimit="10"/>
</svg>
